<svg width="91" height="46" viewBox="0 0 91 46" fill="none" xmlns="http://www.w3.org/2000/svg">
<rect width="91" height="25" rx="1" fill="#2563EB"/>
<path d="M7.04 15.52H8.9C8.9 16.72 10.12 17.96 11.86 17.96C13.62 17.96 14.48 16.98 14.64 15.94C14.74 14.46 13.54 13.76 12.3 13.48L10.52 13.04C7.58 12.3 7.16 10.64 7.16 9.44C7.16 7.12 9.28 5.56 11.62 5.56C14.12 5.56 16.06 7.12 16.06 9.6H14.2C14.2 8.22 13.12 7.34 11.6 7.34C10.24 7.34 9.02 8.16 9.02 9.42C9.02 10.02 9.24 10.92 10.98 11.34L12.78 11.78C15.36 12.44 16.76 13.88 16.46 16.1C16.2 18.1 14.58 19.7 11.86 19.7C9.06 19.7 7.04 17.68 7.04 15.52ZM33.0286 5.72H35.0286L30.3686 19.5H28.7486L26.3086 10.9L23.8886 19.5H22.2686L17.6086 5.72H19.6086L23.0686 16.5L25.6086 7.58H27.0286L29.5686 16.5L33.0286 5.72ZM38.8323 14.32H43.3923L41.1123 8.2L38.8323 14.32ZM44.0323 16H38.1923L36.8523 19.5H34.8723L40.1123 5.72H42.1123L47.3323 19.5H45.3723L44.0323 16ZM59.85 7.38L58.51 8.62C57.63 7.84 56.47 7.34 55.19 7.34C52.31 7.34 50.09 9.72 50.09 12.64C50.09 15.58 52.31 17.92 55.19 17.92C57.65 17.92 59.49 16.5 59.59 14.2H55.67V12.58H61.71C61.71 17.44 59.13 19.7 55.19 19.7C51.27 19.7 48.23 16.56 48.23 12.64C48.23 8.74 51.27 5.56 55.19 5.56C57.03 5.56 58.65 6.26 59.85 7.38ZM66.3909 14.32H70.9509L68.6709 8.2L66.3909 14.32ZM71.5909 16H65.7509L64.4109 19.5H62.4309L67.6709 5.72H69.6709L74.8909 19.5H72.9309L71.5909 16ZM74.6459 5.72H84.8859V7.48H80.7059V19.5H78.8259V7.48H74.6459V5.72Z" fill="white"/>
<path d="M7.27693 37.302L10.5889 42H8.55493L5.35093 37.356H3.76693V42H2.07493V29.598H6.84493C9.45493 29.598 10.5169 31.542 10.5169 33.486C10.5169 35.322 9.59893 37.104 7.27693 37.302ZM6.79093 31.164H3.76693V35.79H6.71893C8.23093 35.79 8.78893 34.638 8.78893 33.486C8.78893 32.352 8.23093 31.164 6.79093 31.164ZM18.6287 37.14H23.8487C23.6507 35.718 22.6607 34.89 21.2927 34.89C19.9067 34.89 18.8267 35.718 18.6287 37.14ZM25.4687 37.77C25.4687 37.968 25.4687 38.22 25.4507 38.418H18.6287C18.8267 39.84 19.9067 40.704 21.3467 40.704C22.3547 40.704 23.2727 40.254 23.7587 39.408C24.1907 39.606 24.7127 39.75 25.1627 39.948C24.4427 41.442 22.9307 42.18 21.2927 42.18C18.8987 42.18 16.9907 40.434 16.9907 37.77C16.9907 35.106 18.8987 33.414 21.2927 33.414C23.6867 33.414 25.4687 35.106 25.4687 37.77ZM34.2287 37.464V42H32.5907V33.594H34.2287V34.854C34.7147 33.846 35.9387 33.414 36.8567 33.414C38.9627 33.414 40.0967 34.764 40.0967 37.14V42H38.4587V37.248C38.4587 35.826 37.7567 35.016 36.6047 35.016C35.4167 35.016 34.2287 35.682 34.2287 37.464ZM50.0413 33.594H51.8233V34.98H50.0413V42H48.4033V34.98H46.8913V33.594H48.4033V30.426H50.0413V33.594ZM65.2565 42V40.704C64.6985 41.64 63.4745 42.18 62.3045 42.18C60.0005 42.18 58.0385 40.452 58.0385 37.788C58.0385 35.106 60.0005 33.414 62.3045 33.414C63.4745 33.414 64.6805 33.9 65.2565 34.854V33.594H66.8765V42H65.2565ZM65.2385 37.77C65.2385 35.97 63.8165 35.016 62.4485 35.016C60.9365 35.016 59.7125 36.114 59.7125 37.77C59.7125 39.426 60.9365 40.578 62.4485 40.578C63.9425 40.578 65.2385 39.552 65.2385 37.77ZM74.658 29.022H76.296V42H74.658V29.022ZM87.1349 38.562L85.9829 38.292C84.4529 37.878 83.5889 37.122 83.7329 35.556C83.8769 34.332 85.1369 33.414 86.6489 33.414C88.0709 33.414 89.4209 34.08 89.5649 35.79H87.9989C87.9089 35.16 87.3329 34.836 86.6849 34.836C86.0549 34.836 85.5509 35.142 85.4249 35.592C85.3529 35.862 85.3529 36.078 85.4429 36.258C85.6049 36.6 86.0009 36.78 86.4329 36.906L87.6749 37.212C89.4029 37.644 89.8529 38.706 89.8529 39.66C89.8529 41.244 88.3409 42.18 86.5949 42.18C85.0829 42.18 83.5169 41.208 83.4629 39.48H84.9569C85.0109 39.84 85.2269 40.236 85.6409 40.434C86.0189 40.668 86.4509 40.758 86.9729 40.722C87.7469 40.668 88.2329 40.254 88.2509 39.624C88.2689 38.994 87.7649 38.706 87.1349 38.562Z" fill="#0F172A"/>
</svg>
